<?xml version="1.0"?>
<svg xmlns="http://www.w3.org/2000/svg" height="512px" viewBox="-81 0 512 512.0008" width="512px"><path d="m153.59375 42.6875h17.066406v17.066406h-17.066406zm0 0" fill="#ff8d00"/><path d="m273.054688 392.539062h-17.066407v17.066407c0 2.261719.898438 4.433593 2.5 6.03125 9.105469 10.0625 14.277344 23.066406 14.566407 36.632812-.371094 13.550781-5.53125 26.527344-14.566407 36.632813-1.601562 1.597656-2.5 3.769531-2.5 6.03125v17.066406h17.066407v-13.832031c22.753906-26.367188 22.753906-65.429688 0-91.796875zm0 0" fill="#ff8d00"/><path d="m51.199219 406.371094c-22.757813 26.367187-22.757813 65.429687 0 91.796875v13.832031h17.066406v-17.066406c-.003906-2.261719-.902344-4.433594-2.503906-6.03125-9.101563-10.0625-14.273438-23.066406-14.5625-36.632813.367187-13.546875 5.527343-26.527343 14.5625-36.632812 1.601562-1.597657 2.5-3.769531 2.503906-6.03125v-17.066407h-17.066406zm0 0" fill="#ff8d00"/><path d="m170.660156 221.878906c-4.714844 0-8.535156 3.820313-8.535156 8.535156v17.066407h-8.53125c-4.710938 0-8.53125 3.820312-8.53125 8.53125 0 4.710937 3.820312 8.53125 8.53125 8.53125h8.53125c9.425781 0 17.066406-7.640625 17.066406-17.0625v-17.066407c0-4.714843-3.820312-8.535156-8.53125-8.535156zm0 0" fill="#ff8d00"/><path d="m136.527344 196.28125h-34.132813c-4.710937 0-8.53125 3.820312-8.53125 8.535156 0 4.710938 3.820313 8.53125 8.53125 8.53125h34.132813c4.710937 0 8.53125-3.820312 8.53125-8.53125 0-4.714844-3.820313-8.535156-8.53125-8.535156zm0 0" fill="#ff8d00"/><path d="m221.855469 196.28125h-34.128907c-4.714843 0-8.535156 3.820312-8.535156 8.535156 0 4.710938 3.820313 8.53125 8.535156 8.53125h34.128907c4.714843 0 8.535156-3.820312 8.535156-8.53125 0-4.714844-3.820313-8.535156-8.535156-8.535156zm0 0" fill="#ff8d00"/><path d="m127.992188 230.414062c0 4.710938-3.820313 8.53125-8.53125 8.53125-4.710938 0-8.53125-3.820312-8.53125-8.53125 0-4.714843 3.820312-8.53125 8.53125-8.53125 4.710937 0 8.53125 3.816407 8.53125 8.53125zm0 0" fill="#ff8d00"/><path d="m213.324219 230.414062c0 4.710938-3.820313 8.53125-8.535157 8.53125-4.710937 0-8.53125-3.820312-8.53125-8.53125 0-4.714843 3.820313-8.53125 8.53125-8.53125 4.714844 0 8.535157 3.816407 8.535157 8.53125zm0 0" fill="#ff8d00"/><path d="m170.660156 281.609375h-17.066406c-4.714844 0-8.535156 3.820313-8.535156 8.535156 0 4.710938 3.824218 8.53125 8.535156 8.53125h17.066406c4.710938 0 8.53125-3.820312 8.53125-8.53125 0-4.714843-3.820312-8.535156-8.53125-8.535156zm0 0" fill="#ff8d00"/><path d="m295.425781 58.167969 3.03125-13.652344c.992188-4.464844-1.714843-8.917969-6.136719-10.09375l-127.992187-34.132813c-1.441406-.3867182-2.960937-.3867182-4.402344 0l-127.996093 34.132813c-4.417969 1.175781-7.125 5.628906-6.132813 10.09375l16.867187 75.917969v41.714844c-18.847656 0-34.132812 15.28125-34.132812 34.132812s15.285156 34.132812 34.132812 34.132812h1.367188c4.03125 27.796876 17.753906 53.273438 38.738281 71.941407-48.65625 12.933593-82.589843 56.902343-82.769531 107.25v102.394531h17.066406v-102.394531c.136719-42.207031 28.316406-79.179688 68.980469-90.5l-16.476563 26.230469c-2.308593 3.671874-1.496093 8.492187 1.894532 11.203124l37.28125 29.867188-13.988282 27.960938c-1.875 3.757812-.738281 8.320312 2.679688 10.757812l56.15625 40.074219v46.800781h17.066406v-46.800781l56.15625-40.105469c3.417969-2.441406 4.554688-7.003906 2.679688-10.761719l-13.988282-27.960937 37.28125-29.867188c3.390626-2.707031 4.203126-7.527344 1.894532-11.203125l-16.476563-26.230469c40.675781 11.324219 68.855469 48.3125 68.980469 90.535157v102.394531h17.066406v-102.394531c-.175781-50.335938-34.085937-94.296875-82.726562-107.25 8.730468-7.796875 16.273437-16.824219 22.390625-26.800781 20.679687 20.246093 48.457031 31.605468 77.402343 31.65625 4.710938 0 8.53125-3.820313 8.53125-8.535157v-145.058593c.074219-39.21875-20.632812-75.539063-54.425781-95.449219zm-13.839843 121.046875c9.425781 0 17.066406 7.640625 17.066406 17.066406s-7.640625 17.066406-17.066406 17.066406zm-221.855469-8.53125v-18.601563c12.875 6.136719 26.507812 10.535157 40.539062 13.082031-9.804687 9.0625-22.679687 14.082032-36.03125 14.050782h-4.507812zm102.394531-17.066406c-65.703125 0-94.355469-15.675782-102.394531-21.195313v-4.402344h204.789062v4.382813c-8.15625 5.597656-36.785156 21.214844-102.394531 21.214844zm0 17.066406c2.96875 0 5.699219-.101563 8.535156-.164063v8.535157c-9.046875-.695313-17.761718-3.703126-25.308594-8.738282 5.339844.230469 10.902344.367188 16.773438.367188zm102.394531 0v8.53125h-17.0625c-14.097656-.050782-27.90625-3.972656-39.925781-11.332032 19.738281-2.078124 38.996094-7.417968 56.988281-15.800781zm1.707031-59.730469h-208.203124l-3.789063-17.066406h215.765625zm-104.101562-93.5625 117.882812 31.433594-6.21875 27.996093h-223.324218l-6.222656-27.996093zm-136.527344 178.890625c0-9.425781 7.640625-17.066406 17.066406-17.066406v34.132812c-9.425781 0-17.066406-7.640625-17.066406-17.066406zm161.980469 174.175781c-16.339844 6.519531-34.5625 6.519531-50.90625 0l-17.535156-45.78125c27.632812 10.84375 58.34375 10.84375 85.976562 0zm-7.738281 20.222657-17.714844 46.230468-17.714844-46.265625c11.679688 2.480469 23.75 2.480469 35.429688 0zm-91.769532-42.714844 13.472657-21.480469 17.816406 46.523437zm37.867188 42.175781 18.089844 47.246094-30.71875-21.953125zm54.285156 47.246094 18.089844-47.246094 12.65625 25.292969zm24.652344-64.378907 17.835938-46.523437 13.488281 21.480469zm-42.75-57.265624c-56.523438-.0625-102.332031-45.867188-102.394531-102.394532v-17.066406h4.503906c21.59375.023438 41.980469-9.945312 55.226563-27 13.257812 17.039062 33.636718 27 55.226562 27h4.503906c4.714844 0 8.535156-3.820312 8.535156-8.53125v-13.023438c16.816407 13.875 37.925782 21.492188 59.730469 21.554688h17.0625v17.066406c-.058593 56.527344-45.867187 102.332032-102.394531 102.394532zm170.660156-25.980469c-23.222656-2.15625-44.816406-12.867188-60.585937-30.054688 3.921875-9.378906 6.617187-19.226562 8.023437-29.292969h1.363282c18.851562 0 34.132812-15.28125 34.132812-34.132812s-15.28125-34.132812-34.132812-34.132812v-41.714844l9.890624-44.464844c25.851563 17.375 41.34375 46.496094 41.308594 77.648438zm0 0" fill="#ff8d00"/><path d="m187.726562 477.867188h17.0625v17.066406h-17.0625zm0 0" fill="#ff8d00"/></svg>
